<svg width="230" height="72" viewBox="0 0 60.854 19.05" version="1.1" id="svg1" inkscape:version="1.4 (86a8ad7, 2024-10-11)" sodipodi:docname="paper_heading_medtek_report.svg" inkscape:export-filename="paper_heading_medtek_report.svg.96dpi.png" inkscape:export-xdpi="96" inkscape:export-ydpi="96" xmlns:inkscape="http://www.inkscape.org/namespaces/inkscape" xmlns:sodipodi="http://sodipodi.sourceforge.net/DTD/sodipodi-0.dtd" xmlns="http://www.w3.org/2000/svg" xmlns:svg="http://www.w3.org/2000/svg" xmlns:rdf="http://www.w3.org/1999/02/22-rdf-syntax-ns#" xmlns:cc="http://creativecommons.org/ns#" xmlns:dc="http://purl.org/dc/elements/1.1/"><sodipodi:namedview id="namedview1" pagecolor="#ffffff" bordercolor="#000000" borderopacity="0.25" inkscape:showpageshadow="2" inkscape:pageopacity="0.0" inkscape:pagecheckerboard="0" inkscape:deskcolor="#d1d1d1" inkscape:document-units="mm" inkscape:zoom="9.2070302" inkscape:cx="95.796362" inkscape:cy="79.55877" inkscape:window-width="3840" inkscape:window-height="2066" inkscape:window-x="-11" inkscape:window-y="-11" inkscape:window-maximized="1" inkscape:current-layer="g7" showgrid="false"/><defs id="defs1"><path x="71.57574" y="5.1047948" width="107.39268" height="80.978634" id="rect10" d="M71.576 5.105H178.968V86.083H71.576V5.105z"/><path x="66.68817" y="9.449301" width="39.643619" height="32.366571" id="rect9" d="M66.688 9.449H106.332V41.816H66.688V9.449z"/><path x="93.624109" y="4.5617315" width="131.85576" height="62.886727" id="rect8" d="M93.624 4.562H225.48V67.448H93.624V4.562z"/></defs><g inkscape:label="Layer 1" inkscape:groupmode="layer" id="layer1"><g id="g7" transform="translate(-23.848 -1.437)scale(1.07543)"><path id="path2" style="baseline-shift:baseline;display:inline;overflow:visible;vector-effect:none;fill:#000000;enable-background:accumulate;stop-color:#000000;stop-opacity:1" d="M28.427 3.525v4h-4v4h4v4h4v-4h4v-4h-4v-4zm0.347 0.472h0.59l1.063 1.428 1.059 -1.428h0.594v3.306h-0.541V4.88L30.427 6.37l-1.116 -1.488v2.42h-0.537zM24.83 7.872h3.307v0.61h-1.346v2.696h-0.611V8.482h-1.35zm3.943 0h3.306v0.61h-2.643v0.735h2.125v0.616h-2.125v0.734h2.643v0.611h-3.306zm4.002 0h0.634v1.345h0.807l1.173 -1.345h0.687v0.174l-1.288 1.48 1.293 1.478v0.174h-0.692l-1.173 -1.345h-0.807v1.345h-0.634zm-4.002 3.875h2.663q0.175 0 0.322 0.087a0.66 0.66 0 0 1 0.234 0.234q0.087 0.142 0.087 0.317v2.03a0.6 0.6 0 0 1 -0.087 0.321 0.7 0.7 0 0 1 -0.234 0.23 0.6 0.6 0 0 1 -0.322 0.087h-2.663zm0.657 0.61a0.06 0.06 0 0 0 -0.042 0.019 0.05 0.05 0 0 0 -0.014 0.037v1.974q0 0.024 0.014 0.042 0.019 0.014 0.042 0.014h1.979q0.023 0 0.041 -0.014a0.06 0.06 0 0 0 0.018 -0.042v-1.974a0.04 0.04 0 0 0 -0.018 -0.037 0.06 0.06 0 0 0 -0.041 -0.018z"/><path style="fill:none;fill-opacity:1;stroke:#000000;stroke-width:1;stroke-dasharray:none;stroke-opacity:1" id="path3" cx="30.427084" cy="9.5249996" r="7.5" d="M37.927 9.525A7.5 7.5 0 0 1 30.427 17.025A7.5 7.5 0 0 1 22.927 9.525A7.5 7.5 0 0 1 37.927 9.525z"/></g><text xml:space="preserve" style="font-style:normal;font-variant:normal;font-weight:normal;font-stretch:normal;font-size:3.175px;font-family:&apos;Open Sans&apos;;-inkscape-font-specification:&apos;Open Sans&apos;;text-align:start;letter-spacing:0px;writing-mode:lr-tb;direction:ltr;text-anchor:start;fill:none;fill-opacity:1;stroke:#34c1e5;stroke-width:1;stroke-dasharray:none;stroke-opacity:1" x="1.6092775" y="11.437365" id="text3"><tspan sodipodi:role="line" id="tspan3" style="stroke-width:1" x="1.6092775" y="11.437365"/></text><text xml:space="preserve" style="font-style:normal;font-variant:normal;font-weight:bold;font-stretch:normal;font-size:1.41111px;font-family:&apos;Open Sans&apos;;-inkscape-font-specification:&apos;Open Sans Bold&apos;;text-align:start;letter-spacing:0px;writing-mode:lr-tb;direction:ltr;text-anchor:start;fill:#000000;fill-opacity:1;stroke:none;stroke-width:1;stroke-dasharray:none;stroke-opacity:1" x="1.0219975" y="18.663475" id="text4"><tspan sodipodi:role="line" style="font-size:1.41111px;fill:#000000;fill-opacity:1;stroke:none;stroke-width:1;-inkscape-font-specification:&apos;Open Sans Bold&apos;;font-family:&apos;Open Sans&apos;;font-weight:bold;font-style:normal;font-stretch:normal;font-variant:normal" x="1.0219975" y="18.663475" id="tspan14">Компания NanoTrasen</tspan></text><text xml:space="preserve" transform="scale(.26458)" id="text8" style="font-style:normal;font-variant:normal;font-weight:normal;font-stretch:normal;font-size:17.3333px;font-family:&apos;Open Sans&apos;;-inkscape-font-specification:&apos;Open Sans&apos;;text-align:end;letter-spacing:0px;writing-mode:lr-tb;direction:ltr;white-space:pre;shape-inside:url(#rect8);display:inline;fill:#000000;fill-opacity:1;stroke:none;stroke-width:3.77953;stroke-dasharray:none;stroke-opacity:1" x="55.063694" y="0"><tspan x="77.65058" y="20.333534" id="tspan9"><tspan style="font-weight:bold;-inkscape-font-specification:&apos;Open Sans Bold&apos;" id="tspan2">Автоматический
</tspan></tspan><tspan x="83.475505" y="42.000158" id="tspan11"><tspan style="font-weight:bold;-inkscape-font-specification:&apos;Open Sans Bold&apos;" id="tspan10">Отчёт Здоровья 
</tspan></tspan><tspan x="137.475505" y="63.666782" id="tspan13"><tspan style="font-weight:bold;-inkscape-font-specification:&apos;Open Sans Bold&apos;" id="tspan12">Пациента</tspan></tspan></text></g><metadata id="metadata1"><rdf:RDF><cc:Work rdf:about=""><dc:description>Letters in MedTek cross set in Orbitron from https://github.com/theleagueof/orbitron, available under the SIL Open Font License. Other letters set in OpenSans from https://github.com/googlefonts/opensans, available under the SIL Open Font License.</dc:description><cc:license rdf:resource="http://creativecommons.org/publicdomain/zero/1.0/"/></cc:Work><cc:License rdf:about="http://creativecommons.org/publicdomain/zero/1.0/"><cc:permits rdf:resource="http://creativecommons.org/ns#Reproduction"/><cc:permits rdf:resource="http://creativecommons.org/ns#Distribution"/><cc:permits rdf:resource="http://creativecommons.org/ns#DerivativeWorks"/></cc:License></rdf:RDF></metadata></svg>